<mxfile host="app.diagrams.net" modified="2020-11-25T15:55:12.785Z" agent="5.0 (Windows)" etag="FDQECwu_wIQ0YsgRc15l" version="13.10.2" type="github">
  <diagram id="C5RBs43oDa-KdzZeNtuy" name="Page-1">
    <mxGraphModel dx="1070" dy="615" grid="1" gridSize="10" guides="1" tooltips="1" connect="1" arrows="1" fold="1" page="1" pageScale="1" pageWidth="827" pageHeight="1169" math="0" shadow="0">
      <root>
        <mxCell id="WIyWlLk6GJQsqaUBKTNV-0" />
        <mxCell id="WIyWlLk6GJQsqaUBKTNV-1" parent="WIyWlLk6GJQsqaUBKTNV-0" />
        <mxCell id="T8XRXTY2sQkYDgnRnIam-0" value="&lt;font style=&quot;font-size: 24px&quot;&gt;WIREFRAME&lt;/font&gt;" style="text;html=1;align=center;verticalAlign=middle;resizable=0;points=[];autosize=1;" vertex="1" parent="WIyWlLk6GJQsqaUBKTNV-1">
          <mxGeometry x="370" y="20" width="160" height="20" as="geometry" />
        </mxCell>
        <mxCell id="T8XRXTY2sQkYDgnRnIam-1" value="" style="whiteSpace=wrap;html=1;aspect=fixed;" vertex="1" parent="WIyWlLk6GJQsqaUBKTNV-1">
          <mxGeometry x="70" y="80" width="1060" height="1060" as="geometry" />
        </mxCell>
        <mxCell id="T8XRXTY2sQkYDgnRnIam-2" value="&lt;font style=&quot;font-size: 22px&quot;&gt;Covid19 Tracker&lt;/font&gt;" style="rounded=0;whiteSpace=wrap;html=1;" vertex="1" parent="WIyWlLk6GJQsqaUBKTNV-1">
          <mxGeometry x="140" y="125" width="180" height="40" as="geometry" />
        </mxCell>
        <mxCell id="T8XRXTY2sQkYDgnRnIam-3" value="&lt;font style=&quot;font-size: 20px&quot;&gt;WorldWide&lt;/font&gt;" style="rounded=0;whiteSpace=wrap;html=1;" vertex="1" parent="WIyWlLk6GJQsqaUBKTNV-1">
          <mxGeometry x="380" y="130" width="154" height="30" as="geometry" />
        </mxCell>
        <mxCell id="T8XRXTY2sQkYDgnRnIam-4" value="" style="rounded=1;whiteSpace=wrap;html=1;" vertex="1" parent="WIyWlLk6GJQsqaUBKTNV-1">
          <mxGeometry x="130" y="210" width="190" height="90" as="geometry" />
        </mxCell>
        <mxCell id="T8XRXTY2sQkYDgnRnIam-9" value="Coronavirus Cases" style="text;html=1;strokeColor=none;fillColor=none;align=center;verticalAlign=middle;whiteSpace=wrap;rounded=0;" vertex="1" parent="WIyWlLk6GJQsqaUBKTNV-1">
          <mxGeometry x="130" y="220" width="170" height="20" as="geometry" />
        </mxCell>
        <mxCell id="T8XRXTY2sQkYDgnRnIam-11" value="" style="rounded=1;whiteSpace=wrap;html=1;" vertex="1" parent="WIyWlLk6GJQsqaUBKTNV-1">
          <mxGeometry x="380" y="210" width="170" height="90" as="geometry" />
        </mxCell>
        <mxCell id="T8XRXTY2sQkYDgnRnIam-12" value="" style="rounded=1;whiteSpace=wrap;html=1;" vertex="1" parent="WIyWlLk6GJQsqaUBKTNV-1">
          <mxGeometry x="600" y="210" width="170" height="90" as="geometry" />
        </mxCell>
        <mxCell id="T8XRXTY2sQkYDgnRnIam-13" value="+20,000" style="text;html=1;strokeColor=none;fillColor=none;align=center;verticalAlign=middle;whiteSpace=wrap;rounded=0;" vertex="1" parent="WIyWlLk6GJQsqaUBKTNV-1">
          <mxGeometry x="130" y="245" width="180" height="20" as="geometry" />
        </mxCell>
        <mxCell id="T8XRXTY2sQkYDgnRnIam-14" value="1.2M Total" style="text;html=1;strokeColor=none;fillColor=none;align=center;verticalAlign=middle;whiteSpace=wrap;rounded=0;" vertex="1" parent="WIyWlLk6GJQsqaUBKTNV-1">
          <mxGeometry x="130" y="270" width="180" height="30" as="geometry" />
        </mxCell>
        <mxCell id="T8XRXTY2sQkYDgnRnIam-15" value="Recovered" style="text;html=1;strokeColor=none;fillColor=none;align=center;verticalAlign=middle;whiteSpace=wrap;rounded=0;" vertex="1" parent="WIyWlLk6GJQsqaUBKTNV-1">
          <mxGeometry x="380" y="220" width="150" height="20" as="geometry" />
        </mxCell>
        <mxCell id="T8XRXTY2sQkYDgnRnIam-16" value="+2000" style="text;html=1;strokeColor=none;fillColor=none;align=center;verticalAlign=middle;whiteSpace=wrap;rounded=0;" vertex="1" parent="WIyWlLk6GJQsqaUBKTNV-1">
          <mxGeometry x="380" y="245" width="150" height="20" as="geometry" />
        </mxCell>
        <mxCell id="T8XRXTY2sQkYDgnRnIam-17" value="1.0M Total" style="text;html=1;strokeColor=none;fillColor=none;align=center;verticalAlign=middle;whiteSpace=wrap;rounded=0;" vertex="1" parent="WIyWlLk6GJQsqaUBKTNV-1">
          <mxGeometry x="380" y="270" width="150" height="20" as="geometry" />
        </mxCell>
        <mxCell id="T8XRXTY2sQkYDgnRnIam-18" value="Death" style="text;html=1;strokeColor=none;fillColor=none;align=center;verticalAlign=middle;whiteSpace=wrap;rounded=0;" vertex="1" parent="WIyWlLk6GJQsqaUBKTNV-1">
          <mxGeometry x="600" y="220" width="160" height="20" as="geometry" />
        </mxCell>
        <mxCell id="T8XRXTY2sQkYDgnRnIam-19" value="+200" style="text;html=1;strokeColor=none;fillColor=none;align=center;verticalAlign=middle;whiteSpace=wrap;rounded=0;" vertex="1" parent="WIyWlLk6GJQsqaUBKTNV-1">
          <mxGeometry x="600" y="240" width="150" height="20" as="geometry" />
        </mxCell>
        <mxCell id="T8XRXTY2sQkYDgnRnIam-20" value="0.5M total" style="text;html=1;strokeColor=none;fillColor=none;align=center;verticalAlign=middle;whiteSpace=wrap;rounded=0;" vertex="1" parent="WIyWlLk6GJQsqaUBKTNV-1">
          <mxGeometry x="610" y="265" width="140" height="20" as="geometry" />
        </mxCell>
        <mxCell id="T8XRXTY2sQkYDgnRnIam-21" value="" style="rounded=1;whiteSpace=wrap;html=1;" vertex="1" parent="WIyWlLk6GJQsqaUBKTNV-1">
          <mxGeometry x="130" y="330" width="120" height="60" as="geometry" />
        </mxCell>
        <mxCell id="T8XRXTY2sQkYDgnRnIam-22" value="" style="rounded=1;whiteSpace=wrap;html=1;" vertex="1" parent="WIyWlLk6GJQsqaUBKTNV-1">
          <mxGeometry x="810" y="130" width="270" height="580" as="geometry" />
        </mxCell>
        <mxCell id="T8XRXTY2sQkYDgnRnIam-23" value="&lt;font style=&quot;font-size: 17px&quot;&gt;Cases By Country&lt;/font&gt;" style="text;html=1;strokeColor=none;fillColor=none;align=center;verticalAlign=middle;whiteSpace=wrap;rounded=0;" vertex="1" parent="WIyWlLk6GJQsqaUBKTNV-1">
          <mxGeometry x="827" y="160" width="193" height="20" as="geometry" />
        </mxCell>
        <mxCell id="T8XRXTY2sQkYDgnRnIam-24" value="" style="rounded=0;whiteSpace=wrap;html=1;" vertex="1" parent="WIyWlLk6GJQsqaUBKTNV-1">
          <mxGeometry x="830" y="210" width="240" height="230" as="geometry" />
        </mxCell>
        <mxCell id="T8XRXTY2sQkYDgnRnIam-25" value="Value" style="text;html=1;strokeColor=none;fillColor=none;align=center;verticalAlign=middle;whiteSpace=wrap;rounded=0;" vertex="1" parent="WIyWlLk6GJQsqaUBKTNV-1">
          <mxGeometry x="860" y="245" width="40" height="20" as="geometry" />
        </mxCell>
        <mxCell id="T8XRXTY2sQkYDgnRnIam-26" value="&#xa;Value&#xa;&#xa;" style="text;html=1;strokeColor=none;fillColor=none;align=center;verticalAlign=middle;whiteSpace=wrap;rounded=0;" vertex="1" parent="WIyWlLk6GJQsqaUBKTNV-1">
          <mxGeometry x="940" y="250" width="40" height="20" as="geometry" />
        </mxCell>
        <mxCell id="T8XRXTY2sQkYDgnRnIam-27" value="&#xa;Value&#xa;&#xa;" style="text;html=1;strokeColor=none;fillColor=none;align=center;verticalAlign=middle;whiteSpace=wrap;rounded=0;" vertex="1" parent="WIyWlLk6GJQsqaUBKTNV-1">
          <mxGeometry x="1020" y="250" width="40" height="20" as="geometry" />
        </mxCell>
        <mxCell id="T8XRXTY2sQkYDgnRnIam-28" value="Value" style="text;html=1;strokeColor=none;fillColor=none;align=center;verticalAlign=middle;whiteSpace=wrap;rounded=0;" vertex="1" parent="WIyWlLk6GJQsqaUBKTNV-1">
          <mxGeometry x="860" y="315" width="40" height="20" as="geometry" />
        </mxCell>
        <mxCell id="T8XRXTY2sQkYDgnRnIam-29" value="Value" style="text;html=1;strokeColor=none;fillColor=none;align=center;verticalAlign=middle;whiteSpace=wrap;rounded=0;" vertex="1" parent="WIyWlLk6GJQsqaUBKTNV-1">
          <mxGeometry x="940" y="315" width="40" height="20" as="geometry" />
        </mxCell>
        <mxCell id="T8XRXTY2sQkYDgnRnIam-30" value="Value" style="text;html=1;strokeColor=none;fillColor=none;align=center;verticalAlign=middle;whiteSpace=wrap;rounded=0;" vertex="1" parent="WIyWlLk6GJQsqaUBKTNV-1">
          <mxGeometry x="1020" y="315" width="40" height="20" as="geometry" />
        </mxCell>
        <mxCell id="T8XRXTY2sQkYDgnRnIam-31" value="Value" style="text;html=1;strokeColor=none;fillColor=none;align=center;verticalAlign=middle;whiteSpace=wrap;rounded=0;" vertex="1" parent="WIyWlLk6GJQsqaUBKTNV-1">
          <mxGeometry x="860" y="380" width="40" height="20" as="geometry" />
        </mxCell>
        <mxCell id="T8XRXTY2sQkYDgnRnIam-34" value="Value" style="text;html=1;strokeColor=none;fillColor=none;align=center;verticalAlign=middle;whiteSpace=wrap;rounded=0;" vertex="1" parent="WIyWlLk6GJQsqaUBKTNV-1">
          <mxGeometry x="940" y="380" width="40" height="20" as="geometry" />
        </mxCell>
        <mxCell id="T8XRXTY2sQkYDgnRnIam-35" value="&#xa;Value&#xa;&#xa;" style="text;html=1;strokeColor=none;fillColor=none;align=center;verticalAlign=middle;whiteSpace=wrap;rounded=0;" vertex="1" parent="WIyWlLk6GJQsqaUBKTNV-1">
          <mxGeometry x="1020" y="390" width="40" height="20" as="geometry" />
        </mxCell>
        <mxCell id="T8XRXTY2sQkYDgnRnIam-37" style="edgeStyle=orthogonalEdgeStyle;rounded=0;orthogonalLoop=1;jettySize=auto;html=1;exitX=1;exitY=1;exitDx=0;exitDy=0;entryX=0.75;entryY=1;entryDx=0;entryDy=0;" edge="1" parent="WIyWlLk6GJQsqaUBKTNV-1" source="T8XRXTY2sQkYDgnRnIam-29" target="T8XRXTY2sQkYDgnRnIam-29">
          <mxGeometry relative="1" as="geometry" />
        </mxCell>
        <mxCell id="T8XRXTY2sQkYDgnRnIam-40" value="" style="shape=image;html=1;verticalAlign=top;verticalLabelPosition=bottom;labelBackgroundColor=#ffffff;imageAspect=0;aspect=fixed;image=https://cdn3.iconfinder.com/data/icons/logos-brands-3/24/logo_brand_brands_logos_maps_google-128.png" vertex="1" parent="WIyWlLk6GJQsqaUBKTNV-1">
          <mxGeometry x="370" y="450" width="128" height="128" as="geometry" />
        </mxCell>
        <mxCell id="T8XRXTY2sQkYDgnRnIam-41" value="" style="image;html=1;image=img/lib/clip_art/finance/Graph_128x128.png" vertex="1" parent="WIyWlLk6GJQsqaUBKTNV-1">
          <mxGeometry x="830" y="474" width="230" height="206" as="geometry" />
        </mxCell>
      </root>
    </mxGraphModel>
  </diagram>
</mxfile>
